<svg width="656" height="323" viewBox="0 0 656 323" fill="none" xmlns="http://www.w3.org/2000/svg">
<path d="M437.8 21.5H232.7V10C232.7 5.6 236.3 2 240.7 2H429.8C434.2 2 437.8 5.6 437.8 10V21.5Z" stroke="#1F3969" stroke-width="4" stroke-miterlimit="10" stroke-linecap="round" stroke-linejoin="round"/>
<path d="M437.8 25.3H232.7V10C232.7 5.6 236.3 2 240.7 2H429.8C434.2 2 437.8 5.6 437.8 10V25.3Z" fill="#D0DDF0"/>
<path d="M437.8 25.3H232.7V10C232.7 5.6 236.3 2 240.7 2H429.8C434.2 2 437.8 5.6 437.8 10V25.3Z" stroke="#1F3969" stroke-width="4" stroke-miterlimit="10" stroke-linecap="round" stroke-linejoin="round"/>
<path d="M437.8 25.3H232.7V10C232.7 5.6 236.3 2 240.7 2H429.8C434.2 2 437.8 5.6 437.8 10V25.3Z" stroke="#1F3969" stroke-width="4" stroke-miterlimit="10" stroke-linecap="round" stroke-linejoin="round"/>
<path d="M252.8 17.7C255.009 17.7 256.8 15.9091 256.8 13.7C256.8 11.4908 255.009 9.69998 252.8 9.69998C250.591 9.69998 248.8 11.4908 248.8 13.7C248.8 15.9091 250.591 17.7 252.8 17.7Z" fill="#1F3969"/>
<path d="M266.7 17.7C268.909 17.7 270.7 15.9091 270.7 13.7C270.7 11.4908 268.909 9.69998 266.7 9.69998C264.491 9.69998 262.7 11.4908 262.7 13.7C262.7 15.9091 264.491 17.7 266.7 17.7Z" fill="#1F3969"/>
<path d="M280.6 17.7C282.809 17.7 284.6 15.9091 284.6 13.7C284.6 11.4908 282.809 9.69998 280.6 9.69998C278.391 9.69998 276.6 11.4908 276.6 13.7C276.6 15.9091 278.391 17.7 280.6 17.7Z" fill="#1F3969"/>
<path d="M629.3 322.7H9C4 322.7 0 318.7 0 313.7C0 308.7 4 304.7 9 304.7H629.3C634.3 304.7 638.3 308.7 638.3 313.7C638.3 318.7 634.3 322.7 629.3 322.7Z" fill="#C9C9C9"/>
<path d="M125.7 229.7C116.1 229.7 108.4 221.9 108.4 212.4C108.4 202.9 116.2 195.1 125.7 195.1H223.7V229.8H125.7V229.7Z" fill="#CECECE"/>
<path d="M229.4 235.7H125.7C112.8 235.7 102.4 225.2 102.4 212.4C102.4 199.5 112.9 189.1 125.7 189.1H229.4V235.7Z" fill="white"/>
<path d="M119.3 207H223.7" stroke="#1F3969" stroke-width="4" stroke-miterlimit="10" stroke-linecap="round" stroke-linejoin="round"/>
<path d="M119.3 217.6H223.7" stroke="#1F3969" stroke-width="4" stroke-miterlimit="10" stroke-linecap="round" stroke-linejoin="round"/>
<path d="M125.7 229.7C116.1 229.7 108.4 221.9 108.4 212.4C108.4 202.9 116.2 195.1 125.7 195.1H223.7V229.8H125.7V229.7Z" stroke="#1F3969" stroke-width="4" stroke-miterlimit="10" stroke-linecap="round" stroke-linejoin="round"/>
<path d="M125.7 229.7C116.1 229.7 108.4 221.9 108.4 212.4C108.4 202.9 116.2 195.1 125.7 195.1H225.4L229.4 189.1H125.7C112.8 189.1 102.4 199.6 102.4 212.4C102.4 225.3 112.9 235.7 125.7 235.7H229.4L225.4 229.7H125.7Z" fill="#FF3E3E"/>
<path d="M125.7 229.7C116.1 229.7 108.4 221.9 108.4 212.4C108.4 202.9 116.2 195.1 125.7 195.1H225.4L229.4 189.1H125.7C112.8 189.1 102.4 199.6 102.4 212.4C102.4 225.3 112.9 235.7 125.7 235.7H229.4L225.4 229.7H125.7Z" stroke="#1F3969" stroke-width="4" stroke-miterlimit="10" stroke-linecap="round" stroke-linejoin="round"/>
<path opacity="0.28" d="M207.1 189H188.7V235.7H207.1V189Z" fill="#1F3969" stroke="#1F3969" stroke-width="4" stroke-miterlimit="10" stroke-linecap="round" stroke-linejoin="round"/>
<path d="M218.7 274.2H28.8C25.1 274.2 22 271.2 22 267.4V242.4C22 238.7 25 235.6 28.8 235.6H218.7C222.4 235.6 225.5 238.6 225.5 242.4V267.4C225.5 271.2 222.5 274.2 218.7 274.2Z" fill="#96B23C"/>
<path d="M218.7 274.2H28.8C25.1 274.2 22 271.2 22 267.4V242.4C22 238.7 25 235.6 28.8 235.6H218.7C222.4 235.6 225.5 238.6 225.5 242.4V267.4C225.5 271.2 222.5 274.2 218.7 274.2Z" stroke="#1F3969" stroke-width="4" stroke-miterlimit="10" stroke-linecap="round" stroke-linejoin="round"/>
<path opacity="0.28" d="M218.7 235.7H188.7V250.7C188.7 260.1 196.3 267.8 205.8 267.8H225.5C225.5 267.7 225.5 267.6 225.5 267.5V242.5C225.5 238.7 222.5 235.7 218.7 235.7Z" fill="#1F3969" stroke="#1F3969" stroke-width="4" stroke-miterlimit="10" stroke-linecap="round" stroke-linejoin="round"/>
<path d="M272.2 282H52.2C53.5 285.2 54.2 289.2 54.2 293.4C54.2 297.6 53.5 301.5 52.2 304.8H272.1C270.8 301.6 270.1 297.6 270.1 293.4C270.2 289.1 270.9 285.2 272.2 282Z" fill="#CECECE"/>
<path d="M278.2 275.9H46.3V281.9H278.2V275.9Z" fill="#96B23C"/>
<path d="M278.2 275.9H46.3V281.9H278.2V275.9Z" stroke="#1F3969" stroke-width="4" stroke-miterlimit="10" stroke-linecap="round" stroke-linejoin="round"/>
<path d="M278.2 304.7H46.3V310.7H278.2V304.7Z" fill="#F6F9FD"/>
<path d="M278.2 304.7H46.3V310.7H278.2V304.7Z" fill="#96B23C"/>
<path d="M278.2 304.7H46.3V310.7H278.2V304.7Z" stroke="#1F3969" stroke-width="4" stroke-miterlimit="10" stroke-linecap="round" stroke-linejoin="round"/>
<path d="M393.4 289.4L390.4 255.7H341L338 289.4C337.3 297.2 332.6 304.7 325.2 310.7V310.8H406.2V310.7C398.8 304.7 394.1 297.2 393.4 289.4Z" fill="#BFCFE2"/>
<path opacity="0.28" d="M341 255.7L339.2 275.9H392.2L390.4 255.7H341Z" fill="#1F3969" stroke="#1F3969" stroke-width="4" stroke-miterlimit="10" stroke-linecap="round" stroke-linejoin="round"/>
<path d="M393.4 289.4L390.4 255.7H341L338 289.4C337.3 297.2 332.6 304.7 325.2 310.7V310.8H406.2V310.7C398.8 304.7 394.1 297.2 393.4 289.4Z" stroke="#1F3969" stroke-width="4" stroke-miterlimit="10" stroke-linecap="round" stroke-linejoin="round"/>
<path d="M523.7 260.7H207.7C201.1 260.7 195.7 255.3 195.7 248.7V42.7C195.7 36.1 201.1 30.7 207.7 30.7H523.7C530.3 30.7 535.7 36.1 535.7 42.7V248.7C535.7 255.4 530.3 260.7 523.7 260.7Z" fill="white"/>
<path d="M523.7 260.7H207.7C201.1 260.7 195.7 255.3 195.7 248.7V42.7C195.7 36.1 201.1 30.7 207.7 30.7H523.7C530.3 30.7 535.7 36.1 535.7 42.7V248.7C535.7 255.4 530.3 260.7 523.7 260.7Z" fill="#BFCFE2"/>
<path d="M523.7 260.7H207.7C201.1 260.7 195.7 255.3 195.7 248.7V42.7C195.7 36.1 201.1 30.7 207.7 30.7H523.7C530.3 30.7 535.7 36.1 535.7 42.7V248.7C535.7 255.4 530.3 260.7 523.7 260.7Z" stroke="#1F3969" stroke-width="4" stroke-miterlimit="10" stroke-linecap="round" stroke-linejoin="round"/>
<path d="M518.756 222.328V47.7281L212.756 47.7281L212.756 222.328L518.756 222.328Z" fill="#F6F9FD"/>
<path opacity="0.28" d="M223.7 30.7V169.3C223.7 173.7 227.3 177.3 231.7 177.3H420.8C425.2 177.3 428.8 173.7 428.8 169.3V30.7H223.7Z" fill="#1F3969" stroke="#1F3969" stroke-width="4" stroke-miterlimit="10" stroke-linecap="round" stroke-linejoin="round"/>
<path d="M518.756 222.328V47.7281L212.756 47.7281L212.756 222.328L518.756 222.328Z" stroke="#1F3969" stroke-width="4" stroke-miterlimit="10" stroke-linecap="round" stroke-linejoin="round"/>
<path d="M352.3 241.4H379.2" stroke="#1F3969" stroke-width="4" stroke-miterlimit="10" stroke-linecap="round" stroke-linejoin="round"/>
<path d="M429.8 166.3H240.7C236.3 166.3 232.7 162.7 232.7 158.3V10.1C232.7 5.70001 236.3 2.10001 240.7 2.10001H429.8C434.2 2.10001 437.8 5.70001 437.8 10.1V158.4C437.8 162.8 434.2 166.3 429.8 166.3Z" fill="#2D425E"/>
<path d="M429.8 166.3H240.7C236.3 166.3 232.7 162.7 232.7 158.3V10.1C232.7 5.70001 236.3 2.10001 240.7 2.10001H429.8C434.2 2.10001 437.8 5.70001 437.8 10.1V158.4C437.8 162.8 434.2 166.3 429.8 166.3Z" stroke="#1F3969" stroke-width="4" stroke-miterlimit="10" stroke-linecap="round" stroke-linejoin="round"/>
<path opacity="0.28" d="M528.5 201.7H412.5C408.1 201.7 404.5 198.1 404.5 193.7V70.8C404.5 66.4 408.1 62.8 412.5 62.8H528.5C532.9 62.8 536.5 66.4 536.5 70.8V193.7C536.5 198.2 532.9 201.7 528.5 201.7Z" fill="#1F3969" stroke="#1F3969" stroke-width="4" stroke-miterlimit="10" stroke-linecap="round" stroke-linejoin="round"/>
<path d="M536.5 194.7H420.5C416.1 194.7 412.5 191.1 412.5 186.7V63.8C412.5 59.4 416.1 55.8 420.5 55.8H536.5C540.9 55.8 544.5 59.4 544.5 63.8V186.7C544.5 191.2 540.9 194.7 536.5 194.7Z" fill="#96B23C" fill-opacity="0.95"/>
<path d="M536.5 194.7H420.5C416.1 194.7 412.5 191.1 412.5 186.7V63.8C412.5 59.4 416.1 55.8 420.5 55.8H536.5C540.9 55.8 544.5 59.4 544.5 63.8V186.7C544.5 191.2 540.9 194.7 536.5 194.7Z" stroke="#1F3969" stroke-width="4" stroke-miterlimit="10" stroke-linecap="round" stroke-linejoin="round"/>
<path opacity="0.34" d="M519.2 93.9H437.6C434.7 93.9 432.4 91.6 432.4 88.7V80.9C432.4 78 434.7 75.7 437.6 75.7H519.2C522.1 75.7 524.4 78 524.4 80.9V88.7C524.4 91.6 522.1 93.9 519.2 93.9Z" stroke="white" stroke-width="2" stroke-miterlimit="10" stroke-linecap="round" stroke-linejoin="round"/>
<g opacity="0.34">
<path d="M483.4 123.2H437.8C434.9 123.2 432.6 120.9 432.6 118V110.2C432.6 107.3 434.9 105 437.8 105H483.4C486.3 105 488.6 107.3 488.6 110.2V118C488.5 120.9 486.2 123.2 483.4 123.2Z" stroke="white" stroke-width="2" stroke-miterlimit="10" stroke-linecap="round" stroke-linejoin="round"/>
<path d="M519.3 123.2H501.6C498.7 123.2 496.4 120.9 496.4 118V110.2C496.4 107.3 498.7 105 501.6 105H519.3C522.2 105 524.5 107.3 524.5 110.2V118C524.5 120.9 522.2 123.2 519.3 123.2Z" stroke="white" stroke-width="2" stroke-miterlimit="10" stroke-linecap="round" stroke-linejoin="round"/>
</g>
<path d="M432.5 153.6H524.4" stroke="white" stroke-width="2" stroke-miterlimit="10" stroke-linecap="round" stroke-linejoin="round"/>
<path d="M432.5 164.4H524.4" stroke="white" stroke-width="2" stroke-miterlimit="10" stroke-linecap="round" stroke-linejoin="round"/>
<path d="M432.5 175.2H488.5" stroke="white" stroke-width="2" stroke-miterlimit="10" stroke-linecap="round" stroke-linejoin="round"/>
<path d="M350.5 43.8H363.5" stroke="white" stroke-width="4" stroke-miterlimit="10" stroke-linecap="round" stroke-linejoin="round"/>
<path d="M284.6 43.8H340.9" stroke="#7BFFA0" stroke-width="4" stroke-miterlimit="10" stroke-linecap="round" stroke-linejoin="round"/>
<path d="M256.8 43.8H276.6" stroke="#9169FF" stroke-width="4" stroke-miterlimit="10" stroke-linecap="round" stroke-linejoin="round"/>
<path d="M282.6 142.3H325.6" stroke="#9169FF" stroke-width="4" stroke-miterlimit="10" stroke-linecap="round" stroke-linejoin="round"/>
<path d="M256.8 142.3H270.7" stroke="#7BFFA0" stroke-width="4" stroke-miterlimit="10" stroke-linecap="round" stroke-linejoin="round"/>
<path d="M340.9 56.1H349" stroke="white" stroke-width="4" stroke-miterlimit="10" stroke-linecap="round" stroke-linejoin="round"/>
<path d="M304.1 56.1H331.3" stroke="#9169FF" stroke-width="4" stroke-miterlimit="10" stroke-linecap="round" stroke-linejoin="round"/>
<path d="M266.7 56.1H294.4" stroke="#FFC47D" stroke-width="4" stroke-miterlimit="10" stroke-linecap="round" stroke-linejoin="round"/>
<path d="M309.6 68.4H333.5" stroke="white" stroke-width="4" stroke-miterlimit="10" stroke-linecap="round" stroke-linejoin="round"/>
<path d="M279.6 68.4H302.1" stroke="#96B23C" stroke-width="4" stroke-miterlimit="10" stroke-linecap="round" stroke-linejoin="round"/>
<path d="M312.8 80.7H317.7" stroke="white" stroke-width="4" stroke-miterlimit="10" stroke-linecap="round" stroke-linejoin="round"/>
<path d="M293 80.7H304.1" stroke="#9169FF" stroke-width="4" stroke-miterlimit="10" stroke-linecap="round" stroke-linejoin="round"/>
<path d="M266.7 80.7H284.6" stroke="#7BFFA0" stroke-width="4" stroke-miterlimit="10" stroke-linecap="round" stroke-linejoin="round"/>
<path d="M305.1 93.1H337" stroke="#FFC47D" stroke-width="4" stroke-miterlimit="10" stroke-linecap="round" stroke-linejoin="round"/>
<path d="M266.7 93.1H295.3" stroke="#FF5757" stroke-width="4" stroke-miterlimit="10" stroke-linecap="round" stroke-linejoin="round"/>
<path d="M342 105.4H359.3" stroke="#9169FF" stroke-width="4" stroke-miterlimit="10" stroke-linecap="round" stroke-linejoin="round"/>
<path d="M305.1 105.4H332.8" stroke="#FF5757" stroke-width="4" stroke-miterlimit="10" stroke-linecap="round" stroke-linejoin="round"/>
<path d="M279.6 105.4H295.3" stroke="#7BFFA0" stroke-width="4" stroke-miterlimit="10" stroke-linecap="round" stroke-linejoin="round"/>
<path d="M317.7 117.7H332.8" stroke="white" stroke-width="4" stroke-miterlimit="10" stroke-linecap="round" stroke-linejoin="round"/>
<path d="M279.6 117.7H307.3" stroke="#9169FF" stroke-width="4" stroke-miterlimit="10" stroke-linecap="round" stroke-linejoin="round"/>
<path d="M357 130H374.3" stroke="white" stroke-width="4" stroke-miterlimit="10" stroke-linecap="round" stroke-linejoin="round"/>
<path d="M304.1 130H347.6" stroke="#FFC47D" stroke-width="4" stroke-miterlimit="10" stroke-linecap="round" stroke-linejoin="round"/>
<path d="M266.7 130H294.4" stroke="white" stroke-width="4" stroke-miterlimit="10" stroke-linecap="round" stroke-linejoin="round"/>
<path d="M54.7 288.9H270.2" stroke="#1F3969" stroke-width="4" stroke-miterlimit="10" stroke-linecap="round" stroke-linejoin="round"/>
<path d="M54.7 296.9H270.2" stroke="#1F3969" stroke-width="4" stroke-miterlimit="10" stroke-linecap="round" stroke-linejoin="round"/>
<path d="M272.2 282H52.2C53.5 285.2 54.2 289.2 54.2 293.4C54.2 297.6 53.5 301.5 52.2 304.8H272.1C270.8 301.6 270.1 297.6 270.1 293.4C270.2 289.1 270.9 285.2 272.2 282Z" stroke="#1F3969" stroke-width="4" stroke-miterlimit="10" stroke-linecap="round" stroke-linejoin="round"/>
<path d="M54.9493 123L45.2159 124.143L53.6811 196.249L63.4144 195.106L54.9493 123Z" fill="#FFA364"/>
<path d="M54.9625 123.077L45.2291 124.219L46.092 131.569L55.8253 130.426L54.9625 123.077Z" fill="#2AA1FF"/>
<path d="M54.9625 123.077L45.2291 124.219L46.092 131.569L55.8253 130.426L54.9625 123.077Z" stroke="#1F3969" stroke-width="4" stroke-miterlimit="10" stroke-linecap="round" stroke-linejoin="round"/>
<path d="M54.9493 123L45.2159 124.143L53.6811 196.249L63.4144 195.106L54.9493 123Z" stroke="#1F3969" stroke-width="4" stroke-miterlimit="10" stroke-linecap="round" stroke-linejoin="round"/>
<path d="M81.6388 137.77L71.8966 136.71L64.0485 208.882L73.7907 209.941L81.6388 137.77Z" fill="#FF5252"/>
<path d="M81.6388 137.77L71.8966 136.71L64.0485 208.882L73.7907 209.941L81.6388 137.77Z" stroke="#1F3969" stroke-width="4" stroke-miterlimit="10" stroke-linecap="round" stroke-linejoin="round"/>
<path d="M81.7111 137.787L71.9689 136.727L71.169 144.084L80.9112 145.143L81.7111 137.787Z" fill="#2D425E"/>
<path d="M81.7111 137.787L71.9689 136.727L71.169 144.084L80.9112 145.143L81.7111 137.787Z" stroke="#1F3969" stroke-width="4" stroke-miterlimit="10" stroke-linecap="round" stroke-linejoin="round"/>
<path d="M87.7 233.529H48.4L42 173.329H94.1L87.7 233.529Z" fill="#96B23C"/>
<path d="M42 173.329L42.1 174.429H81.8L75.5 233.529H87.7L94.1 173.329H42Z" fill="#96B23C"/>
<path d="M87.7 233.529H48.4L42 173.329H94.1L87.7 233.529Z" stroke="#1F3969" stroke-width="4" stroke-miterlimit="10" stroke-linecap="round" stroke-linejoin="round"/>
<path d="M95.1295 246.855H96.8909V257.252C96.8909 258.18 96.7204 258.969 96.3795 259.617C96.0386 260.266 95.558 260.758 94.9378 261.095C94.3175 261.431 93.586 261.599 92.7432 261.599C91.9477 261.599 91.2399 261.454 90.6196 261.166C89.9993 260.872 89.5116 260.455 89.1565 259.916C88.8014 259.376 88.6239 258.734 88.6239 257.991H90.3568C90.3568 258.403 90.4586 258.763 90.6622 259.07C90.8705 259.373 91.1546 259.61 91.5145 259.781C91.8743 259.951 92.2839 260.036 92.7432 260.036C93.2498 260.036 93.6807 259.93 94.0358 259.717C94.3909 259.504 94.6608 259.191 94.8454 258.779C95.0348 258.363 95.1295 257.854 95.1295 257.252V246.855ZM108.375 250.491C108.29 249.771 107.944 249.212 107.338 248.815C106.732 248.417 105.989 248.218 105.108 248.218C104.464 248.218 103.901 248.322 103.418 248.531C102.94 248.739 102.566 249.025 102.296 249.39C102.031 249.755 101.898 250.169 101.898 250.633C101.898 251.021 101.99 251.355 102.175 251.634C102.364 251.909 102.606 252.139 102.899 252.323C103.193 252.503 103.501 252.652 103.823 252.771C104.145 252.884 104.441 252.977 104.71 253.048L106.188 253.445C106.567 253.545 106.988 253.682 107.452 253.857C107.921 254.033 108.368 254.272 108.794 254.575C109.225 254.873 109.58 255.257 109.86 255.725C110.139 256.194 110.279 256.769 110.279 257.451C110.279 258.237 110.073 258.947 109.661 259.582C109.254 260.216 108.657 260.721 107.871 261.095C107.09 261.469 106.14 261.656 105.023 261.656C103.981 261.656 103.079 261.488 102.317 261.151C101.559 260.815 100.963 260.346 100.527 259.745C100.096 259.144 99.8525 258.445 99.7957 257.65H101.614C101.661 258.199 101.846 258.654 102.168 259.014C102.495 259.369 102.907 259.634 103.404 259.809C103.906 259.98 104.445 260.065 105.023 260.065C105.695 260.065 106.299 259.956 106.834 259.738C107.369 259.516 107.793 259.208 108.105 258.815C108.418 258.417 108.574 257.953 108.574 257.423C108.574 256.94 108.439 256.547 108.169 256.244C107.899 255.941 107.544 255.695 107.104 255.505C106.664 255.316 106.188 255.15 105.676 255.008L103.887 254.497C102.75 254.17 101.851 253.703 101.188 253.097C100.525 252.491 100.193 251.698 100.193 250.718C100.193 249.904 100.414 249.194 100.854 248.587C101.299 247.977 101.896 247.503 102.644 247.167C103.397 246.826 104.237 246.656 105.165 246.656C106.103 246.656 106.936 246.824 107.665 247.16C108.394 247.491 108.972 247.946 109.398 248.524C109.829 249.101 110.056 249.757 110.08 250.491H108.375ZM123.288 261.4H118.8V246.855H123.487C124.898 246.855 126.106 247.146 127.109 247.728C128.113 248.306 128.882 249.137 129.418 250.221C129.953 251.301 130.22 252.593 130.22 254.099C130.22 255.614 129.95 256.918 129.41 258.012C128.871 259.101 128.085 259.939 127.052 260.526C126.02 261.109 124.766 261.4 123.288 261.4ZM120.561 259.837H123.175C124.377 259.837 125.374 259.605 126.165 259.141C126.955 258.677 127.545 258.017 127.933 257.16C128.321 256.303 128.516 255.283 128.516 254.099C128.516 252.925 128.324 251.914 127.94 251.066C127.557 250.214 126.984 249.561 126.222 249.106C125.459 248.647 124.51 248.417 123.373 248.417H120.561V259.837ZM137.521 261.627C136.47 261.627 135.563 261.395 134.801 260.931C134.043 260.462 133.459 259.809 133.047 258.971C132.64 258.128 132.436 257.148 132.436 256.031C132.436 254.913 132.64 253.928 133.047 253.076C133.459 252.219 134.032 251.552 134.766 251.073C135.504 250.59 136.366 250.349 137.351 250.349C137.919 250.349 138.48 250.444 139.034 250.633C139.588 250.822 140.092 251.13 140.547 251.556C141.001 251.978 141.364 252.536 141.633 253.232C141.903 253.928 142.038 254.785 142.038 255.803V256.514H133.629V255.065H140.334C140.334 254.449 140.211 253.9 139.964 253.417C139.723 252.934 139.377 252.553 138.927 252.274C138.482 251.994 137.957 251.855 137.351 251.855C136.683 251.855 136.106 252.02 135.618 252.352C135.135 252.678 134.763 253.105 134.503 253.63C134.242 254.156 134.112 254.719 134.112 255.32V256.286C134.112 257.11 134.254 257.809 134.538 258.382C134.827 258.95 135.227 259.383 135.739 259.681C136.25 259.975 136.844 260.122 137.521 260.122C137.962 260.122 138.359 260.06 138.714 259.937C139.074 259.809 139.384 259.62 139.645 259.369C139.905 259.113 140.106 258.796 140.248 258.417L141.868 258.872C141.697 259.421 141.411 259.904 141.008 260.32C140.606 260.732 140.109 261.054 139.517 261.286C138.925 261.514 138.26 261.627 137.521 261.627ZM153.176 250.491L149.142 261.4H147.438L143.404 250.491H145.222L148.233 259.184H148.347L151.358 250.491H153.176Z" fill="white" fill-opacity="0.8"/>
<path d="M439.857 89.4V80.6727H442.806C443.487 80.6727 444.047 80.7892 444.485 81.0222C444.922 81.2523 445.246 81.569 445.456 81.9724C445.666 82.3758 445.772 82.8347 445.772 83.3489C445.772 83.8631 445.666 84.319 445.456 84.7168C445.246 85.1145 444.924 85.427 444.489 85.6543C444.054 85.8787 443.499 85.9909 442.823 85.9909H440.436V85.0364H442.789C443.255 85.0364 443.63 84.9682 443.914 84.8318C444.201 84.6954 444.408 84.5023 444.536 84.2523C444.666 83.9994 444.732 83.6983 444.732 83.3489C444.732 82.9994 444.666 82.694 444.536 82.4327C444.405 82.1713 444.196 81.9696 443.909 81.8276C443.622 81.6827 443.243 81.6102 442.772 81.6102H440.914V89.4H439.857ZM443.965 85.4795L446.112 89.4H444.885L442.772 85.4795H443.965ZM449.322 89.5534C448.908 89.5534 448.531 89.4753 448.193 89.319C447.855 89.1599 447.587 88.9312 447.388 88.6329C447.189 88.3318 447.089 87.9682 447.089 87.542C447.089 87.167 447.163 86.8631 447.311 86.6301C447.459 86.3943 447.656 86.2097 447.903 86.0761C448.15 85.9426 448.423 85.8432 448.722 85.7778C449.023 85.7097 449.325 85.6557 449.629 85.6159C450.027 85.5648 450.349 85.5264 450.597 85.5008C450.847 85.4724 451.028 85.4256 451.142 85.3602C451.258 85.2949 451.317 85.1812 451.317 85.0193V84.9852C451.317 84.5648 451.202 84.2381 450.972 84.0051C450.744 83.7722 450.399 83.6557 449.936 83.6557C449.456 83.6557 449.079 83.7608 448.807 83.971C448.534 84.1812 448.342 84.4057 448.231 84.6443L447.277 84.3034C447.447 83.9057 447.675 83.596 447.959 83.3744C448.246 83.15 448.558 82.9937 448.896 82.9057C449.237 82.8148 449.572 82.7693 449.902 82.7693C450.112 82.7693 450.354 82.7949 450.626 82.846C450.902 82.8943 451.168 82.9952 451.423 83.1486C451.682 83.302 451.896 83.5335 452.067 83.8432C452.237 84.1528 452.322 84.5676 452.322 85.0875V89.4H451.317V88.5136H451.266C451.197 88.6557 451.084 88.8077 450.925 88.9696C450.766 89.1315 450.554 89.2693 450.29 89.3829C450.025 89.4966 449.703 89.5534 449.322 89.5534ZM449.476 88.65C449.873 88.65 450.209 88.5719 450.481 88.4156C450.757 88.2594 450.964 88.0577 451.104 87.8105C451.246 87.5633 451.317 87.3034 451.317 87.0307V86.1102C451.274 86.1614 451.18 86.2082 451.035 86.2508C450.893 86.2906 450.729 86.3261 450.541 86.3574C450.356 86.3858 450.176 86.4114 450 86.4341C449.827 86.454 449.686 86.471 449.578 86.4852C449.317 86.5193 449.072 86.5747 448.845 86.6514C448.621 86.7253 448.439 86.8375 448.3 86.9881C448.163 87.1358 448.095 87.3375 448.095 87.5932C448.095 87.9426 448.224 88.2068 448.483 88.3858C448.744 88.5619 449.075 88.65 449.476 88.65ZM458.794 84.3204L457.891 84.5761C457.834 84.4256 457.75 84.2793 457.639 84.1372C457.532 83.9923 457.384 83.873 457.196 83.7793C457.009 83.6855 456.769 83.6386 456.476 83.6386C456.076 83.6386 455.742 83.731 455.475 83.9156C455.21 84.0974 455.078 84.329 455.078 84.6102C455.078 84.8602 455.169 85.0577 455.351 85.2026C455.533 85.3474 455.817 85.4682 456.203 85.5648L457.175 85.8034C457.76 85.9454 458.196 86.1628 458.483 86.4554C458.77 86.7452 458.914 87.1187 458.914 87.5761C458.914 87.9511 458.806 88.2864 458.59 88.5818C458.377 88.8773 458.078 89.1102 457.695 89.2807C457.311 89.4511 456.865 89.5364 456.357 89.5364C455.689 89.5364 455.137 89.3915 454.699 89.1017C454.262 88.8119 453.985 88.3886 453.868 87.8318L454.823 87.5932C454.914 87.9454 455.085 88.2097 455.338 88.3858C455.594 88.5619 455.928 88.65 456.34 88.65C456.809 88.65 457.181 88.5506 457.456 88.3517C457.735 88.15 457.874 87.9085 457.874 87.6273C457.874 87.4 457.794 87.2097 457.635 87.0562C457.476 86.9 457.232 86.7835 456.902 86.7068L455.811 86.4511C455.212 86.3091 454.772 86.0889 454.49 85.7906C454.212 85.4895 454.073 85.1131 454.073 84.6614C454.073 84.292 454.176 83.9653 454.384 83.6812C454.594 83.3972 454.88 83.1741 455.24 83.0122C455.604 82.8503 456.016 82.7693 456.476 82.7693C457.124 82.7693 457.632 82.9114 458.002 83.1954C458.374 83.4795 458.638 83.8545 458.794 84.3204ZM465.064 84.3204L464.16 84.5761C464.104 84.4256 464.02 84.2793 463.909 84.1372C463.801 83.9923 463.653 83.873 463.466 83.7793C463.278 83.6855 463.038 83.6386 462.746 83.6386C462.345 83.6386 462.011 83.731 461.744 83.9156C461.48 84.0974 461.348 84.329 461.348 84.6102C461.348 84.8602 461.439 85.0577 461.621 85.2026C461.802 85.3474 462.087 85.4682 462.473 85.5648L463.445 85.8034C464.03 85.9454 464.466 86.1628 464.753 86.4554C465.04 86.7452 465.183 87.1187 465.183 87.5761C465.183 87.9511 465.075 88.2864 464.859 88.5818C464.646 88.8773 464.348 89.1102 463.964 89.2807C463.581 89.4511 463.135 89.5364 462.626 89.5364C461.959 89.5364 461.406 89.3915 460.969 89.1017C460.531 88.8119 460.254 88.3886 460.138 87.8318L461.092 87.5932C461.183 87.9454 461.355 88.2097 461.608 88.3858C461.864 88.5619 462.197 88.65 462.609 88.65C463.078 88.65 463.45 88.5506 463.726 88.3517C464.004 88.15 464.143 87.9085 464.143 87.6273C464.143 87.4 464.064 87.2097 463.905 87.0562C463.746 86.9 463.501 86.7835 463.172 86.7068L462.081 86.4511C461.481 86.3091 461.041 86.0889 460.76 85.7906C460.481 85.4895 460.342 85.1131 460.342 84.6614C460.342 84.292 460.446 83.9653 460.653 83.6812C460.864 83.3972 461.149 83.1741 461.51 83.0122C461.873 82.8503 462.285 82.7693 462.746 82.7693C463.393 82.7693 463.902 82.9114 464.271 83.1954C464.643 83.4795 464.908 83.8545 465.064 84.3204ZM471.998 89.5534C471.583 89.5534 471.207 89.4753 470.869 89.319C470.531 89.1599 470.262 88.9312 470.063 88.6329C469.865 88.3318 469.765 87.9682 469.765 87.542C469.765 87.167 469.839 86.8631 469.987 86.6301C470.135 86.3943 470.332 86.2097 470.579 86.0761C470.826 85.9426 471.099 85.8432 471.397 85.7778C471.698 85.7097 472.001 85.6557 472.305 85.6159C472.703 85.5648 473.025 85.5264 473.272 85.5008C473.522 85.4724 473.704 85.4256 473.818 85.3602C473.934 85.2949 473.992 85.1812 473.992 85.0193V84.9852C473.992 84.5648 473.877 84.2381 473.647 84.0051C473.42 83.7722 473.075 83.6557 472.612 83.6557C472.132 83.6557 471.755 83.7608 471.483 83.971C471.21 84.1812 471.018 84.4057 470.907 84.6443L469.953 84.3034C470.123 83.9057 470.35 83.596 470.635 83.3744C470.921 83.15 471.234 82.9937 471.572 82.9057C471.913 82.8148 472.248 82.7693 472.578 82.7693C472.788 82.7693 473.029 82.7949 473.302 82.846C473.578 82.8943 473.843 82.9952 474.099 83.1486C474.358 83.302 474.572 83.5335 474.742 83.8432C474.913 84.1528 474.998 84.5676 474.998 85.0875V89.4H473.992V88.5136H473.941C473.873 88.6557 473.76 88.8077 473.6 88.9696C473.441 89.1315 473.23 89.2693 472.965 89.3829C472.701 89.4966 472.379 89.5534 471.998 89.5534ZM472.152 88.65C472.549 88.65 472.885 88.5719 473.157 88.4156C473.433 88.2594 473.64 88.0577 473.779 87.8105C473.921 87.5633 473.992 87.3034 473.992 87.0307V86.1102C473.95 86.1614 473.856 86.2082 473.711 86.2508C473.569 86.2906 473.404 86.3261 473.217 86.3574C473.032 86.3858 472.852 86.4114 472.676 86.4341C472.502 86.454 472.362 86.471 472.254 86.4852C471.992 86.5193 471.748 86.5747 471.521 86.6514C471.296 86.7253 471.115 86.8375 470.975 86.9881C470.839 87.1358 470.771 87.3375 470.771 87.5932C470.771 87.9426 470.9 88.2068 471.159 88.3858C471.42 88.5619 471.751 88.65 472.152 88.65ZM481.47 84.3204L480.567 84.5761C480.51 84.4256 480.426 84.2793 480.315 84.1372C480.207 83.9923 480.06 83.873 479.872 83.7793C479.685 83.6855 479.445 83.6386 479.152 83.6386C478.751 83.6386 478.418 83.731 478.15 83.9156C477.886 84.0974 477.754 84.329 477.754 84.6102C477.754 84.8602 477.845 85.0577 478.027 85.2026C478.209 85.3474 478.493 85.4682 478.879 85.5648L479.851 85.8034C480.436 85.9454 480.872 86.1628 481.159 86.4554C481.446 86.7452 481.589 87.1187 481.589 87.5761C481.589 87.9511 481.481 88.2864 481.266 88.5818C481.052 88.8773 480.754 89.1102 480.371 89.2807C479.987 89.4511 479.541 89.5364 479.033 89.5364C478.365 89.5364 477.812 89.3915 477.375 89.1017C476.937 88.8119 476.66 88.3886 476.544 87.8318L477.498 87.5932C477.589 87.9454 477.761 88.2097 478.014 88.3858C478.27 88.5619 478.604 88.65 479.016 88.65C479.484 88.65 479.856 88.5506 480.132 88.3517C480.41 88.15 480.55 87.9085 480.55 87.6273C480.55 87.4 480.47 87.2097 480.311 87.0562C480.152 86.9 479.908 86.7835 479.578 86.7068L478.487 86.4511C477.888 86.3091 477.447 86.0889 477.166 85.7906C476.888 85.4895 476.748 85.1131 476.748 84.6614C476.748 84.292 476.852 83.9653 477.06 83.6812C477.27 83.3972 477.555 83.1741 477.916 83.0122C478.28 82.8503 478.692 82.7693 479.152 82.7693C479.8 82.7693 480.308 82.9114 480.677 83.1954C481.05 83.4795 481.314 83.8545 481.47 84.3204ZM486.615 89.4V80.6727H489.563C490.245 80.6727 490.805 80.7892 491.242 81.0222C491.68 81.2523 492.004 81.569 492.214 81.9724C492.424 82.3758 492.529 82.8347 492.529 83.3489C492.529 83.8631 492.424 84.319 492.214 84.7168C492.004 85.1145 491.681 85.427 491.247 85.6543C490.812 85.8787 490.257 85.9909 489.581 85.9909H487.194V85.0364H489.546C490.012 85.0364 490.387 84.9682 490.671 84.8318C490.958 84.6954 491.166 84.5023 491.294 84.2523C491.424 83.9994 491.49 83.6983 491.49 83.3489C491.49 82.9994 491.424 82.694 491.294 82.4327C491.163 82.1713 490.954 81.9696 490.667 81.8276C490.38 81.6827 490.001 81.6102 489.529 81.6102H487.671V89.4H486.615ZM490.723 85.4795L492.87 89.4H491.643L489.529 85.4795H490.723ZM494.154 89.4V82.8545H495.16V89.4H494.154ZM494.665 81.7636C494.469 81.7636 494.3 81.6969 494.158 81.5633C494.019 81.4298 493.949 81.2693 493.949 81.0818C493.949 80.8943 494.019 80.7338 494.158 80.6003C494.3 80.4668 494.469 80.4 494.665 80.4C494.861 80.4 495.029 80.4668 495.168 80.6003C495.31 80.7338 495.381 80.8943 495.381 81.0818C495.381 81.2693 495.31 81.4298 495.168 81.5633C495.029 81.6969 494.861 81.7636 494.665 81.7636ZM499.473 89.5364C498.928 89.5364 498.446 89.3986 498.029 89.123C497.611 88.8446 497.284 88.4526 497.049 87.9469C496.813 87.4383 496.695 86.8375 496.695 86.1443C496.695 85.4568 496.813 84.8602 497.049 84.3545C497.284 83.8489 497.612 83.4582 498.033 83.1827C498.453 82.9071 498.939 82.7693 499.49 82.7693C499.916 82.7693 500.253 82.8403 500.5 82.9824C500.75 83.1216 500.941 83.2807 501.071 83.4597C501.205 83.6358 501.309 83.7807 501.382 83.8943H501.468V80.6727H502.473V89.4H501.502V88.3943H501.382C501.309 88.5136 501.203 88.6642 501.067 88.846C500.931 89.025 500.736 89.1855 500.483 89.3276C500.23 89.4668 499.894 89.5364 499.473 89.5364ZM499.61 88.6329C500.013 88.6329 500.354 88.5278 500.632 88.3176C500.911 88.1045 501.122 87.8105 501.267 87.4355C501.412 87.0577 501.485 86.6216 501.485 86.1273C501.485 85.6386 501.414 85.2111 501.272 84.8446C501.13 84.4753 500.919 84.1883 500.641 83.9838C500.362 83.7764 500.019 83.6727 499.61 83.6727C499.184 83.6727 498.828 83.7821 498.544 84.0008C498.263 84.2168 498.051 84.5108 497.909 84.8829C497.77 85.2523 497.701 85.667 497.701 86.1273C497.701 86.5932 497.772 87.0165 497.914 87.3972C498.059 87.775 498.272 88.0761 498.553 88.3006C498.837 88.5222 499.189 88.6329 499.61 88.6329ZM505.46 85.4625V89.4H504.455V80.6727H505.46V83.8773H505.546C505.699 83.5392 505.929 83.2707 506.236 83.0719C506.546 82.8702 506.958 82.7693 507.472 82.7693C507.918 82.7693 508.309 82.8588 508.644 83.0378C508.979 83.2139 509.239 83.4852 509.424 83.8517C509.611 84.2153 509.705 84.6784 509.705 85.2409V89.4H508.699V85.3091C508.699 84.7892 508.564 84.3872 508.294 84.1031C508.027 83.8162 507.657 83.6727 507.182 83.6727C506.853 83.6727 506.557 83.7423 506.296 83.8815C506.037 84.0207 505.833 84.2239 505.682 84.4909C505.534 84.7579 505.46 85.0818 505.46 85.4625ZM514.204 89.5364C513.613 89.5364 513.094 89.3957 512.648 89.1145C512.205 88.8332 511.859 88.4398 511.609 87.9341C511.361 87.4284 511.238 86.8375 511.238 86.1614C511.238 85.4795 511.361 84.8844 511.609 84.3758C511.859 83.8673 512.205 83.4724 512.648 83.1912C513.094 82.9099 513.613 82.7693 514.204 82.7693C514.795 82.7693 515.312 82.9099 515.755 83.1912C516.201 83.4724 516.548 83.8673 516.795 84.3758C517.045 84.8844 517.17 85.4795 517.17 86.1614C517.17 86.8375 517.045 87.4284 516.795 87.9341C516.548 88.4398 516.201 88.8332 515.755 89.1145C515.312 89.3957 514.795 89.5364 514.204 89.5364ZM514.204 88.6329C514.653 88.6329 515.022 88.5179 515.312 88.2878C515.601 88.0577 515.816 87.7551 515.955 87.3801C516.094 87.0051 516.164 86.5989 516.164 86.1614C516.164 85.7239 516.094 85.3162 515.955 84.9383C515.816 84.5605 515.601 84.2551 515.312 84.0222C515.022 83.7892 514.653 83.6727 514.204 83.6727C513.755 83.6727 513.386 83.7892 513.096 84.0222C512.806 84.2551 512.592 84.5605 512.452 84.9383C512.313 85.3162 512.244 85.7239 512.244 86.1614C512.244 86.5989 512.313 87.0051 512.452 87.3801C512.592 87.7551 512.806 88.0577 513.096 88.2878C513.386 88.5179 513.755 88.6329 514.204 88.6329Z" fill="white" fill-opacity="0.8"/>
<path d="M449.63 111.855C449.578 111.423 449.371 111.087 449.007 110.849C448.644 110.61 448.198 110.491 447.669 110.491C447.283 110.491 446.945 110.553 446.655 110.678C446.368 110.803 446.144 110.975 445.982 111.194C445.823 111.413 445.743 111.661 445.743 111.94C445.743 112.173 445.799 112.373 445.909 112.541C446.023 112.705 446.168 112.843 446.344 112.954C446.52 113.062 446.705 113.151 446.898 113.222C447.091 113.291 447.269 113.346 447.431 113.389L448.317 113.627C448.544 113.687 448.797 113.769 449.076 113.874C449.357 113.98 449.625 114.123 449.881 114.305C450.139 114.484 450.353 114.714 450.52 114.995C450.688 115.276 450.772 115.622 450.772 116.031C450.772 116.502 450.648 116.928 450.401 117.309C450.157 117.69 449.799 117.992 449.327 118.217C448.858 118.441 448.289 118.553 447.618 118.553C446.993 118.553 446.452 118.453 445.995 118.251C445.54 118.049 445.182 117.768 444.921 117.407C444.662 117.046 444.516 116.627 444.482 116.15H445.573C445.601 116.48 445.712 116.752 445.905 116.968C446.101 117.181 446.348 117.34 446.647 117.445C446.948 117.548 447.272 117.599 447.618 117.599C448.022 117.599 448.384 117.534 448.705 117.403C449.026 117.269 449.28 117.085 449.468 116.849C449.655 116.61 449.749 116.332 449.749 116.014C449.749 115.724 449.668 115.488 449.506 115.306C449.344 115.124 449.131 114.977 448.867 114.863C448.603 114.749 448.317 114.65 448.01 114.565L446.936 114.258C446.255 114.062 445.715 113.782 445.317 113.418C444.919 113.055 444.72 112.579 444.72 111.991C444.72 111.502 444.853 111.076 445.117 110.712C445.384 110.346 445.742 110.062 446.191 109.86C446.642 109.656 447.147 109.553 447.703 109.553C448.266 109.553 448.766 109.654 449.203 109.856C449.641 110.055 449.987 110.328 450.243 110.674C450.502 111.021 450.638 111.414 450.652 111.855H449.63ZM453.378 114.462V118.4H452.373V109.673H453.378V112.877H453.464C453.617 112.539 453.847 112.271 454.154 112.072C454.464 111.87 454.876 111.769 455.39 111.769C455.836 111.769 456.226 111.859 456.562 112.038C456.897 112.214 457.157 112.485 457.342 112.852C457.529 113.215 457.623 113.678 457.623 114.241V118.4H456.617V114.309C456.617 113.789 456.482 113.387 456.212 113.103C455.945 112.816 455.574 112.673 455.1 112.673C454.771 112.673 454.475 112.742 454.214 112.882C453.955 113.021 453.751 113.224 453.6 113.491C453.452 113.758 453.378 114.082 453.378 114.462ZM459.463 118.4V111.855H460.468V118.4H459.463ZM459.974 110.764C459.778 110.764 459.609 110.697 459.467 110.563C459.328 110.43 459.258 110.269 459.258 110.082C459.258 109.894 459.328 109.734 459.467 109.6C459.609 109.467 459.778 109.4 459.974 109.4C460.17 109.4 460.338 109.467 460.477 109.6C460.619 109.734 460.69 109.894 460.69 110.082C460.69 110.269 460.619 110.43 460.477 110.563C460.338 110.697 460.17 110.764 459.974 110.764ZM463.316 109.673V118.4H462.31V109.673H463.316ZM470.51 111.855L468.09 118.4H467.067L464.647 111.855H465.737L467.544 117.07H467.612L469.419 111.855H470.51ZM473.565 118.553C473.15 118.553 472.773 118.475 472.435 118.319C472.097 118.16 471.829 117.931 471.63 117.633C471.431 117.332 471.332 116.968 471.332 116.542C471.332 116.167 471.405 115.863 471.553 115.63C471.701 115.394 471.898 115.21 472.146 115.076C472.393 114.943 472.665 114.843 472.964 114.778C473.265 114.71 473.567 114.656 473.871 114.616C474.269 114.565 474.592 114.526 474.839 114.501C475.089 114.472 475.271 114.426 475.384 114.36C475.501 114.295 475.559 114.181 475.559 114.019V113.985C475.559 113.565 475.444 113.238 475.214 113.005C474.986 112.772 474.641 112.656 474.178 112.656C473.698 112.656 473.322 112.761 473.049 112.971C472.776 113.181 472.584 113.406 472.474 113.644L471.519 113.303C471.69 112.906 471.917 112.596 472.201 112.374C472.488 112.15 472.8 111.994 473.138 111.906C473.479 111.815 473.815 111.769 474.144 111.769C474.354 111.769 474.596 111.795 474.869 111.846C475.144 111.894 475.41 111.995 475.665 112.149C475.924 112.302 476.138 112.534 476.309 112.843C476.479 113.153 476.565 113.568 476.565 114.087V118.4H475.559V117.514H475.508C475.44 117.656 475.326 117.808 475.167 117.97C475.008 118.132 474.796 118.269 474.532 118.383C474.268 118.497 473.945 118.553 473.565 118.553ZM473.718 117.65C474.116 117.65 474.451 117.572 474.724 117.416C474.999 117.259 475.207 117.058 475.346 116.811C475.488 116.563 475.559 116.303 475.559 116.031V115.11C475.516 115.161 475.423 115.208 475.278 115.251C475.136 115.291 474.971 115.326 474.783 115.357C474.599 115.386 474.418 115.411 474.242 115.434C474.069 115.454 473.928 115.471 473.82 115.485C473.559 115.519 473.315 115.575 473.087 115.651C472.863 115.725 472.681 115.837 472.542 115.988C472.405 116.136 472.337 116.337 472.337 116.593C472.337 116.943 472.467 117.207 472.725 117.386C472.986 117.562 473.317 117.65 473.718 117.65Z" fill="white" fill-opacity="0.8"/>
<path d="M507.198 109.673H508.255V115.911C508.255 116.468 508.152 116.941 507.948 117.33C507.743 117.72 507.455 118.015 507.083 118.217C506.71 118.418 506.272 118.519 505.766 118.519C505.289 118.519 504.864 118.433 504.492 118.259C504.12 118.083 503.827 117.833 503.614 117.509C503.401 117.186 503.294 116.801 503.294 116.355H504.334C504.334 116.602 504.395 116.818 504.517 117.002C504.642 117.184 504.813 117.326 505.029 117.428C505.245 117.531 505.49 117.582 505.766 117.582C506.07 117.582 506.328 117.518 506.541 117.39C506.755 117.262 506.916 117.075 507.027 116.828C507.141 116.578 507.198 116.272 507.198 115.911V109.673ZM515.145 111.855C515.094 111.423 514.887 111.087 514.523 110.849C514.159 110.61 513.713 110.491 513.185 110.491C512.799 110.491 512.46 110.553 512.171 110.678C511.884 110.803 511.659 110.975 511.497 111.194C511.338 111.413 511.259 111.661 511.259 111.94C511.259 112.173 511.314 112.373 511.425 112.541C511.539 112.705 511.684 112.843 511.86 112.954C512.036 113.062 512.22 113.151 512.414 113.222C512.607 113.291 512.784 113.346 512.946 113.389L513.833 113.627C514.06 113.687 514.313 113.769 514.591 113.874C514.872 113.98 515.141 114.123 515.397 114.305C515.655 114.484 515.868 114.714 516.036 114.995C516.203 115.276 516.287 115.622 516.287 116.031C516.287 116.502 516.164 116.928 515.916 117.309C515.672 117.69 515.314 117.992 514.843 118.217C514.374 118.441 513.804 118.553 513.134 118.553C512.509 118.553 511.968 118.453 511.51 118.251C511.056 118.049 510.698 117.768 510.436 117.407C510.178 117.046 510.032 116.627 509.997 116.15H511.088C511.117 116.48 511.228 116.752 511.421 116.968C511.617 117.181 511.864 117.34 512.162 117.445C512.463 117.548 512.787 117.599 513.134 117.599C513.537 117.599 513.899 117.534 514.22 117.403C514.541 117.269 514.796 117.085 514.983 116.849C515.171 116.61 515.264 116.332 515.264 116.014C515.264 115.724 515.184 115.488 515.022 115.306C514.86 115.124 514.647 114.977 514.382 114.863C514.118 114.749 513.833 114.65 513.526 114.565L512.452 114.258C511.77 114.062 511.23 113.782 510.833 113.418C510.435 113.055 510.236 112.579 510.236 111.991C510.236 111.502 510.368 111.076 510.632 110.712C510.899 110.346 511.257 110.062 511.706 109.86C512.158 109.656 512.662 109.553 513.219 109.553C513.782 109.553 514.282 109.654 514.719 109.856C515.157 110.055 515.503 110.328 515.759 110.674C516.017 111.021 516.154 111.414 516.168 111.855H515.145Z" fill="white" fill-opacity="0.8"/>
<path d="M238.579 313.232H189.383C185.363 313.232 182.073 309.942 182.073 305.922V207.31C182.073 203.29 185.363 200 189.383 200H238.579C242.6 200 245.889 203.29 245.889 207.31V305.922C245.889 310.016 242.6 313.232 238.579 313.232Z" fill="white"/>
<path d="M246.913 233.992H182.073V207.164C182.073 203.216 185.289 200 189.237 200H239.31C243.477 200 246.84 203.436 246.84 207.529V233.992H246.913Z" fill="#96B23C"/>
<path d="M238.579 313.232H189.383C185.363 313.232 182.073 309.942 182.073 305.922V207.31C182.073 203.29 185.363 200 189.383 200H238.579C242.6 200 245.889 203.29 245.889 207.31V305.922C245.889 310.016 242.6 313.232 238.579 313.232Z" stroke="#444E59" stroke-width="4" stroke-miterlimit="10" stroke-linecap="round" stroke-linejoin="round"/>
<path d="M238.653 313.232H189.602C185.436 313.232 182 309.796 182 305.63V291.594H245.889V305.995C245.889 310.016 242.6 313.232 238.653 313.232Z" fill="#BBBFC2"/>
<path d="M238.799 313.232H189.602C185.436 313.232 182 309.796 182 305.63V291.594H245.889V306.141C245.889 310.089 242.673 313.232 238.799 313.232Z" stroke="#444E59" stroke-width="4" stroke-miterlimit="10" stroke-linecap="round" stroke-linejoin="round"/>
<path d="M214.456 305.63C216.475 305.63 218.111 303.993 218.111 301.975C218.111 299.956 216.475 298.32 214.456 298.32C212.438 298.32 210.801 299.956 210.801 301.975C210.801 303.993 212.438 305.63 214.456 305.63Z" fill="#444E59"/>
<path opacity="0.3" d="M196.474 245.322H232.512" stroke="#444E59" stroke-width="4" stroke-miterlimit="10" stroke-linecap="round" stroke-linejoin="round"/>
<path opacity="0.3" d="M203.638 256.652H226.299" stroke="#444E59" stroke-width="4" stroke-miterlimit="10" stroke-linecap="round" stroke-linejoin="round"/>
<path opacity="0.3" d="M196.474 266.96H232.512" stroke="#444E59" stroke-width="4" stroke-miterlimit="10" stroke-linecap="round" stroke-linejoin="round"/>
<path opacity="0.62" d="M214.456 227.778C218.978 227.778 222.644 224.112 222.644 219.591C222.644 215.069 218.978 211.404 214.456 211.404C209.935 211.404 206.269 215.069 206.269 219.591C206.269 224.112 209.935 227.778 214.456 227.778Z" fill="white"/>
<path d="M226.299 278.29C226.299 280.556 224.471 282.384 222.205 282.384H206.781C204.515 282.384 202.687 280.556 202.687 278.29C202.687 276.024 204.515 274.197 206.781 274.197H222.205C224.471 274.123 226.299 275.951 226.299 278.29Z" fill="#ED8B3B"/>
<path d="M633.981 295.355H456.86V188.921C456.86 185.778 459.418 183.219 462.562 183.219H628.352C631.423 183.219 633.908 185.705 633.908 188.775V295.355H633.981Z" fill="#BBBFC2"/>
<path d="M634.42 295.574H457.372V188.848C457.372 185.632 460.003 183 463.22 183H628.572C631.788 183 634.42 185.632 634.42 188.848V295.574Z" stroke="#444E59" stroke-width="4" stroke-miterlimit="10" stroke-linecap="round" stroke-linejoin="round"/>
<path opacity="0.71" d="M624.717 286.163V192.449L467.187 192.449V286.163H624.717Z" fill="#5D5D5D"/>
<path opacity="0.32" d="M505.691 268.308H492.094C491.29 268.308 490.632 267.65 490.632 266.846V220.281C490.632 219.477 491.29 218.819 492.094 218.819H505.691C506.495 218.819 507.153 219.477 507.153 220.281V266.919C507.153 267.65 506.495 268.308 505.691 268.308Z" fill="#848484"/>
<path opacity="0.32" d="M603.864 277.738H525.355C523.746 277.738 522.431 276.422 522.431 274.814V214.799C522.431 213.19 523.746 211.875 525.355 211.875H603.864C605.472 211.875 606.788 213.19 606.788 214.799V274.814C606.788 276.422 605.545 277.738 603.864 277.738Z" fill="#848484"/>
<path d="M624.579 285.72V192.81L467.194 192.81V285.72H624.579Z" stroke="#444E59" stroke-width="4" stroke-miterlimit="10" stroke-linecap="round" stroke-linejoin="round"/>
<path d="M653.718 295.574H438V302.445C438 305.662 440.632 308.293 443.848 308.293H647.87C651.087 308.293 653.718 305.662 653.718 302.445V295.574Z" fill="white"/>
<path opacity="0.8" d="M446.26 308.732H645.531C649.551 308.732 652.841 305.662 653.572 301.495H438.146C438.877 305.662 442.24 308.732 446.26 308.732Z" fill="#BBBFC2"/>
<path d="M653.718 295.574H438V302.445C438 305.662 440.632 308.293 443.848 308.293H647.87C651.087 308.293 653.718 305.662 653.718 302.445V295.574Z" stroke="#444E59" stroke-width="4" stroke-miterlimit="10" stroke-linecap="round" stroke-linejoin="round"/>
<path d="M503.205 215.091H486.758V231.538H503.205V215.091Z" fill="#F09F54"/>
<path d="M503.498 215.237H487.05V231.685H503.498V215.237Z" stroke="#444E59" stroke-width="4" stroke-miterlimit="10" stroke-linecap="round" stroke-linejoin="round"/>
<path d="M503.498 215.237H487.05V231.685H503.498V215.237Z" stroke="#444E59" stroke-width="4" stroke-miterlimit="10" stroke-linecap="round" stroke-linejoin="round"/>
<path d="M503.205 231.538H486.758V247.986H503.205V231.538Z" fill="#8D91DB"/>
<path d="M503.498 231.758H487.05V248.205H503.498V231.758Z" stroke="#444E59" stroke-width="4" stroke-miterlimit="10" stroke-linecap="round" stroke-linejoin="round"/>
<path d="M503.205 247.986H486.758V264.433H503.205V247.986Z" fill="#96B23C"/>
<path d="M503.498 248.205H487.05V264.653H503.498V248.205Z" stroke="#444E59" stroke-width="4" stroke-miterlimit="10" stroke-linecap="round" stroke-linejoin="round"/>
<path d="M599.112 272.694H520.53C518.922 272.694 517.606 271.378 517.606 269.77V209.755C517.606 208.146 518.922 206.831 520.53 206.831H599.112C600.721 206.831 602.036 208.146 602.036 209.755V269.77C602.036 271.451 600.721 272.694 599.112 272.694Z" fill="white"/>
<path d="M599.112 272.694H520.53C518.922 272.694 517.606 271.378 517.606 269.77V209.755C517.606 208.146 518.922 206.831 520.53 206.831H599.112C600.721 206.831 602.036 208.146 602.036 209.755V269.77C602.036 271.451 600.721 272.694 599.112 272.694Z" stroke="#444E59" stroke-width="4" stroke-miterlimit="10" stroke-linecap="round" stroke-linejoin="round"/>
<g opacity="0.3">
<path d="M577.329 255.369V256.466H576.232" stroke="#444E59" stroke-width="2" stroke-linejoin="round"/>
<path d="M574.843 256.466H544.214" stroke="#444E59" stroke-width="2" stroke-linejoin="round" stroke-dasharray="2.86 2.86"/>
<path d="M543.483 256.466H542.387V255.369" stroke="#444E59" stroke-width="2" stroke-linejoin="round"/>
<path d="M542.387 253.834V225.325" stroke="#444E59" stroke-width="2" stroke-linejoin="round" stroke-dasharray="3 3"/>
<path d="M542.387 224.594V223.497H543.483" stroke="#444E59" stroke-width="2" stroke-linejoin="round"/>
<path d="M544.872 223.497H575.501" stroke="#444E59" stroke-width="2" stroke-linejoin="round" stroke-dasharray="2.86 2.86"/>
<path d="M576.232 223.497H577.329V224.594" stroke="#444E59" stroke-width="2" stroke-linejoin="round"/>
<path d="M577.329 226.056V254.638" stroke="#444E59" stroke-width="2" stroke-linejoin="round" stroke-dasharray="3 3"/>
</g>
<path d="M545.165 220.939H539.975V226.129H545.165V220.939Z" fill="white"/>
<path d="M544.872 220.72H539.755V225.837H544.872V220.72Z" stroke="#444E59" stroke-miterlimit="10" stroke-linejoin="round"/>
<path d="M545.165 253.834H539.975V259.024H545.165V253.834Z" fill="white"/>
<path d="M544.872 253.688H539.755V258.805H544.872V253.688Z" stroke="#444E59" stroke-miterlimit="10" stroke-linejoin="round"/>
<path d="M579.96 220.939H574.77V226.129H579.96V220.939Z" fill="white"/>
<path d="M579.887 220.72H574.77V225.837H579.887V220.72Z" stroke="#444E59" stroke-miterlimit="10" stroke-linejoin="round"/>
<path d="M579.96 253.834H574.77V259.024H579.96V253.834Z" fill="white"/>
<path d="M579.887 253.688H574.77V258.805H579.887V253.688Z" stroke="#444E59" stroke-miterlimit="10" stroke-linejoin="round"/>
<path d="M495.31 240.237L500.501 251.349L505.544 253.98L509.053 250.471L506.495 245.354L495.31 240.237Z" fill="white"/>
<path d="M495.31 240.237L500.501 251.349L505.544 253.98L509.053 250.471L506.495 245.354L495.31 240.237Z" stroke="#444E59" stroke-miterlimit="10" stroke-linejoin="round"/>
<path d="M501.889 247.913C502.656 247.913 503.278 247.291 503.278 246.524C503.278 245.757 502.656 245.135 501.889 245.135C501.122 245.135 500.501 245.757 500.501 246.524C500.501 247.291 501.122 247.913 501.889 247.913Z" fill="#444E59"/>
<path d="M495.31 240.237L501.085 246.012" stroke="#444E59" stroke-miterlimit="10" stroke-linecap="round" stroke-linejoin="round"/>
<path d="M509.075 250.413L505.56 253.928L508.093 256.461L511.608 252.946L509.075 250.413Z" fill="white"/>
<path d="M509.075 250.413L505.56 253.928L508.093 256.461L511.608 252.946L509.075 250.413Z" stroke="#444E59" stroke-miterlimit="10" stroke-linejoin="round"/>
</svg>
